<?xml version="1.0" encoding="UTF-8"?>
<svg data-bbox="112.661 141.004 148.775 91.988" viewBox="112.5 141 149.5 92" xmlns="http://www.w3.org/2000/svg" data-type="color">
    <g>
        <defs>
            <clipPath id="a46b134e-6984-43b1-8053-d2c53f3477b2">
                <path d="M112.5 141H262v92H112.5Zm0 0"/>
            </clipPath>
            <clipPath id="5d71fc8d-6b7e-429f-bda4-263cdf706ca1">
                <path d="M136.934 142.172h46.668v62.473h-46.668Zm0 0"/>
            </clipPath>
            <clipPath id="e836f80a-527c-462d-9824-9fc33427f213">
                <path d="M132.488 169H148v3h-15.512Zm0 0"/>
            </clipPath>
            <clipPath id="bf618f55-33a9-41e4-9d5a-4bc3bac58f70">
                <path d="M177.457 170.61h14.758v1.523h-14.758Zm0 0"/>
            </clipPath>
        </defs>
        <g clip-path="url(#a46b134e-6984-43b1-8053-d2c53f3477b2)">
            <path d="M112.664 141.129h18.133v2.086c0 17.86-.027 35.719.035 53.574.012 2.379.238 4.813.781 7.125 1.649 7.05 6.825 11.371 14.04 12.29 4.663.589 9-.25 13.187-2.24 5.969-2.835 11.191-6.792 16.398-10.78 7.532-5.766 14.996-11.63 23.29-16.309 6.683-3.773 13.702-6.66 21.347-7.695 3.582-.485 7.23-.43 10.816-.871 4.207-.512 7.754-2.34 9.235-6.586 1.508-4.32 1.238-8.555-1.973-12.157-2.215-2.484-5.223-3.578-8.433-3.683-6.02-.196-12.043-.102-18.067-.168-1.183-.012-1.078.734-1.078 1.496 0 5.809-.055 11.621.035 17.43.028 1.605-.418 2.285-2 2.957-4.836 2.058-9.523 4.453-14.265 6.734-.57.273-1.102.629-1.899 1.098-.047-.707-.105-1.203-.105-1.7-.012-13.539-.012-27.082-.016-40.62 0-2.048.012-2.06 2.105-2.06 12.051 0 24.094-.038 36.145.012 5.875.028 11.55 1.067 16.867 3.743 14.856 7.476 14.696 25.879 6.793 34.117-1.316 1.375-2.836 2.594-4.422 3.644-1.586 1.047-3.37 1.79-5.207 2.739.387.164.723.351 1.078.453 10.34 3.031 16.899 13.262 15.84 23.937-1.113 11.227-8.933 19.172-21.37 21.489a46.6 46.6 0 0 1-8.102.765c-12.633.078-25.266.035-37.903.031-.523 0-1.043-.046-1.812-.082v-2.093c0-4.32-.024-8.637.027-12.957.004-.63.184-1.461.602-1.86 4.968-4.683 10.039-9.254 16.007-12.675.403-.231.836-.41 1.555-.758v15.492c.656.062 1.067.133 1.477.133 5.918.004 11.836.023 17.754-.024 1.27-.008 2.554-.16 3.804-.41 5.86-1.172 9.317-5.11 9.547-10.773.25-6.32-2.844-10.914-8.71-12.532-5.434-1.5-10.891-.828-16.274.434-8.422 1.969-15.43 6.559-21.832 12.164-5.492 4.813-10.781 9.86-16.336 14.59-4.88 4.148-10.035 7.976-16.258 9.95-10.812 3.425-21.562 3.382-32.012-1.282-10.285-4.59-16.09-12.805-18.097-23.75-.48-2.602-.684-5.29-.692-7.938-.058-18.34-.031-36.675-.035-55.015zm0 0" fill="#c888db" data-color="1"/>
        </g>
        <g clip-path="url(#5d71fc8d-6b7e-429f-bda4-263cdf706ca1)">
            <path d="m151.012 173.23 8.66.184-22.7 31.23 36.516-35.527-8.734-.222 18.805-26.711z" fill="#8ec5cd" data-color="2"/>
        </g>
        <path d="M152.395 193.41a3 3 0 0 1-.165-.074.507.507 0 0 0-.667.258l-1.692 3.828a.504.504 0 0 0 .258.664l.336.148a.503.503 0 0 0 .664-.257l1.691-3.829a.5.5 0 0 0-.257-.664c-.055-.023-.114-.047-.168-.074" fill="#8ec5cd" data-color="2"/>
        <path d="m170.785 194.523 1.531 3.95a.5.5 0 0 0 .649.289l.347-.133a.503.503 0 0 0 .286-.652l-1.528-3.954a.51.51 0 0 0-.66-.285q-.166.07-.332.133a.504.504 0 0 0-.293.652" fill="#8ec5cd" data-color="2"/>
        <path d="m161.195 186.25-.093 13.941c0 .278.218.5.496.508l.367.008a.51.51 0 0 0 .515-.5l.094-13.941a.503.503 0 0 0-.5-.508q-.181-.001-.36-.008a.51.51 0 0 0-.519.5" fill="#8ec5cd" data-color="2"/>
        <path d="m143.758 187.8-3.02 2.907a.5.5 0 0 0-.015.711l.257.27a.5.5 0 0 0 .711.011l3.02-2.906a.5.5 0 0 0 .012-.715l-.246-.258a.504.504 0 0 0-.72-.02" fill="#8ec5cd" data-color="2"/>
        <path d="m179.242 189.39 2.973 3.09a.506.506 0 0 0 .715.016l.265-.258a.5.5 0 0 0 .012-.71l-2.973-3.09a.503.503 0 0 0-.718-.008l-.258.25a.505.505 0 0 0-.016.71" fill="#8ec5cd" data-color="2"/>
        <g clip-path="url(#e836f80a-527c-462d-9824-9fc33427f213)">
            <path d="m147.215 169.688-14.188-.094c-.273 0-.5.219-.507.492l-.004.371a.504.504 0 0 0 .5.516l14.183.093a.5.5 0 0 0 .508-.496c.004-.12.004-.238.008-.36a.504.504 0 0 0-.5-.523" fill="#8ec5cd" data-color="2"/>
        </g>
        <path d="m138.7 179.277-3.954 1.528a.503.503 0 0 0-.289.652l.133.344c.101.262.394.39.652.289l3.95-1.528a.506.506 0 0 0 .288-.656l-.128-.336a.5.5 0 0 0-.653-.293" fill="#8ec5cd" data-color="2"/>
        <path d="M172.191 148.621c.055.027.11.05.164.078a.51.51 0 0 0 .668-.258l1.836-4.152a.507.507 0 0 0-.257-.664l-.34-.148a.504.504 0 0 0-.664.257l-1.836 4.149a.51.51 0 0 0 .261.668z" fill="#8ec5cd" data-color="2"/>
        <path d="m154.035 147.422-1.62-4.184a.5.5 0 0 0-.653-.289l-.344.133a.5.5 0 0 0-.29.652l1.622 4.184c.098.262.39.387.652.285.114-.043.223-.086.336-.125a.51.51 0 0 0 .297-.656" fill="#8ec5cd" data-color="2"/>
        <path d="m145.578 152.418-3.066-3.191a.505.505 0 0 0-.711-.012l-.266.258a.5.5 0 0 0-.015.71l3.066 3.188a.51.51 0 0 0 .715.012c.086-.082.172-.168.258-.246a.5.5 0 0 0 .02-.719" fill="#8ec5cd" data-color="2"/>
        <path d="m163.527 157.652.098-16.132a.504.504 0 0 0-.492-.508l-.371-.008a.504.504 0 0 0-.512.5l-.102 16.133c0 .277.223.504.5.508l.356.007a.506.506 0 0 0 .523-.5" fill="#8ec5cd" data-color="2"/>
        <path d="M139.23 161.383a.504.504 0 0 0 .665-.258q.004-.002.003-.004c.047-.11.098-.215.145-.324a.504.504 0 0 0-.254-.672l-3.992-1.762a.5.5 0 0 0-.664.254l-.149.34a.504.504 0 0 0 .258.664z" fill="#8ec5cd" data-color="2"/>
        <g clip-path="url(#bf618f55-33a9-41e4-9d5a-4bc3bac58f70)">
            <path d="m177.96 172.02 13.74.097a.504.504 0 0 0 .507-.496l.008-.367a.507.507 0 0 0-.5-.516l-13.742-.097a.51.51 0 0 0-.508.504q.001.179-.004.359a.507.507 0 0 0 .5.516" fill="#8ec5cd" data-color="2"/>
        </g>
        <path d="M184.688 180.914q.001.005-.004.004a.504.504 0 0 0 .257.668l3.989 1.762c.254.113.55 0 .664-.254l.148-.34a.5.5 0 0 0-.254-.664l-3.992-1.766a.506.506 0 0 0-.668.266z" fill="#8ec5cd" data-color="2"/>
        <path d="m185.8 162.523 4.184-1.617a.505.505 0 0 0 .286-.652l-.133-.344a.5.5 0 0 0-.653-.289l-4.183 1.621a.5.5 0 0 0-.285.656c.043.114.09.223.132.336a.5.5 0 0 0 .653.29" fill="#8ec5cd" data-color="2"/>
        <path d="m180.734 154.137 3.258-3.133a.5.5 0 0 0 .012-.711l-.254-.27a.506.506 0 0 0-.715-.011l-3.258 3.133a.51.51 0 0 0-.007.718c.085.082.167.172.25.258.19.203.511.211.714.016" fill="#8ec5cd" data-color="2"/>
    </g>
</svg>
